<?xml version="1.0" encoding="UTF-8"?>
<svg width="166px" height="45px" viewBox="0 0 166 45" version="1.1" xmlns="http://www.w3.org/2000/svg" xmlns:xlink="http://www.w3.org/1999/xlink">
    <!-- Generator: Sketch 42 (36781) - http://www.bohemiancoding.com/sketch -->
    <title>logo</title>
    <desc>Created with Sketch.</desc>
    <defs></defs>
    <g id="Symbols" stroke="none" stroke-width="1" fill="none" fill-rule="evenodd">
        <g id="Header" transform="translate(-17.000000, -53.000000)">
            <g id="logo" transform="translate(17.000000, 53.000000)">
                <g id="Conrad-Logo/-Desktop" transform="translate(0.000000, 3.000000)">
                    <g id="Conrad-Electronic-Logo">
                        <g id="Group">
                            <g id="BoundingBox">
                                <rect id="Rectangle-path" x="0" y="0" width="151.293503" height="41.9717459"></rect>
                            </g>
                            <g id="C_x5F_NRAD" fill="#0098DD">
                                <path d="M28.2235003,34.6218216 L21.1841162,34.6218216 C13.764229,34.6218216 11.0056946,31.9394913 11.0056946,24.7223657 C11.0056946,13.5179241 15.7661446,7.34757384 24.4078782,7.34757384 L33.7455619,7.34757384 L35.212655,0.18198949 L22.1740296,0.18198949 C14.6499012,0.18198949 10.0690365,1.59845197 6.8436103,4.91606665 C2.6010379,9.29523073 0,17.5404963 0,26.6847966 C0,37.9565608 3.67597823,41.7897564 14.5368849,41.7897564 L26.7836401,41.7897564 L26.7836401,41.7897564 L28.2235003,34.6218216 Z" id="Shape" fill-rule="nonzero"></path>
                                <polygon id="Shape" fill-rule="nonzero" points="44.8229696 32.3853991 52.4312172 32.3853991 55.4850766 17.2502197 62.1323079 32.3853991 70.0522202 32.3853991 74.690879 9.55260148 67.0818749 9.55260148 64.3942971 22.7221601 58.8515083 9.55260148 49.4333365 9.55260148"></polygon>
                                <path d="M134.521256,15.4147113 L139.045235,15.4147113 C142.24252,15.4147113 143.117148,16.1869914 143.117148,19.0209237 C143.117148,23.627071 141.025061,26.5258076 137.688888,26.5258076 L132.257754,26.5258076 L134.521256,15.4147113 L134.521256,15.4147113 Z M123.120988,32.3853991 L139.724845,32.3853991 C147.277719,32.3853991 151.293503,27.3618848 151.293503,17.8937305 C151.293503,12.0324601 148.917741,9.55260148 143.344693,9.55260148 L127.733625,9.55260148 L123.120988,32.3853991 L123.120988,32.3853991 Z" id="Shape"></path>
                                <path d="M95.8822573,29.508152 L92.8150841,25.1716312 C97.5371056,24.0435986 100.025127,21.080897 100.025127,16.5091665 C100.025127,11.5487777 97.4246946,9.55260148 90.8913873,9.55260148 L77.3134006,9.55260148 L72.6770112,32.3853991 L80.6524482,32.3853991 L84.1037555,15.4147113 L89.1655823,15.4147113 C91.4290844,15.4147113 92.6170409,16.1869914 92.6170409,17.6363597 C92.6170409,19.6971725 91.5414954,20.7268233 89.3341232,20.7268233 L83.7639503,20.7268233 L87.5818419,28.037462 C89.8156904,32.2576371 90.0137336,32.3853991 94.4846079,32.3853991 L102.451119,32.3853991 L102.451119,32.3853991 L104.942166,28.2965117 L113.34304,28.2965117 L112.521517,32.3853991 L120.49998,32.3853991 L125.136218,9.55260148 L115.52091,9.55260148 C108.759906,9.55260148 108.505885,9.71410876 104.120642,16.6058694 L95.8822573,29.508152 Z M114.238395,22.7221601 L108.130525,22.7221601 L110.506287,18.699588 C112.202439,15.7681134 112.710634,15.4147113 115.172179,15.4147113 L115.710027,15.4147113 L114.238395,22.7221601 L114.238395,22.7221601 Z" id="Shape"></path>
                            </g>
                            <g id="C_-_ueberfuellt_-_spart_aus" transform="translate(12.916667, 9.024691)" fill-rule="nonzero" fill="#FFE600">
                                <path d="M14.5998391,5.76044374 L19.4533347,5.76296205 L20.4875771,0.528749557 L11.8546185,0.527910122 C4.27375499,0.527910122 0.144198832,5.87359957 0.144198832,15.7287334 C0.144198832,21.396598 2.32282527,23.3607078 8.65824069,23.3607078 L15.8660145,23.3607078 L16.980745,17.8551899 L12.7870404,17.8551899 C12.2942774,17.8551899 11.4409821,17.8011303 11.0169064,17.7715822 C10.9992051,17.7667135 10.9653153,17.7568082 10.9653153,17.7568082 C10.6453296,17.7306178 10.459995,17.6945221 10.1394041,17.6191408 C9.98130238,17.5813663 9.86450379,17.5600446 9.72274178,17.5175692 C9.51441063,17.4519254 9.38959349,17.4126398 9.27203843,17.3683177 C8.07530683,16.935505 7.52353942,15.9584028 7.50356868,13.9662558 C7.54487181,8.66908573 10.0846358,5.76044374 14.5998391,5.76044374 Z" id="Shape"></path>
                            </g>
                            <g id="O_-_geteilt_-_spart_aus" transform="translate(20.092593, 9.024691)" fill-rule="nonzero" fill="#0098DD">
                                <path d="M16.5627972,0.528749557 L13.2052918,0.528749557 L12.1710494,5.64409806 L7.31679741,5.64090821 C2.76392203,5.64090821 0.215988151,8.59605489 0.215988151,13.9761612 C0.215988151,16.79448 1.26868834,17.5634023 3.58695868,17.7536183 C3.58695868,17.7536183 3.89120992,17.7766188 4.2827575,17.7994514 C1.79322292,17.5813663 0.962167707,16.6272645 0.962167707,14.2122103 C0.962167707,9.28707772 3.31947177,6.58191475 7.41952569,6.58191475 L12.6327972,6.58275419 C15.8839433,6.58275419 16.7326998,7.29022994 16.7326998,9.99623234 C16.7326998,15.1156101 14.6398568,17.8536789 10.7652302,17.8536789 L9.69770326,17.8553578 L8.5837292,23.3591968 L13.1122463,23.3591968 C20.8046132,23.3591968 25.1875859,18.1422767 25.1875859,8.96574203 C25.1875859,2.78397541 22.8974562,0.528749557 16.5627972,0.528749557 Z" id="Shape"></path>
                            </g>
                        </g>
                    </g>
                </g>
                <g id="Group-2" transform="translate(140.000000, 0.000000)">
                    <g>
                        <rect id="Rectangle" fill="#0098DD" x="0" y="0" width="26" height="10" rx="3"></rect>
                        <path d="M3.39130435,7.68061496 L3.39130435,2.22222222 L5.33649244,2.22222222 C6.01031914,2.22222222 6.52140266,2.34905861 6.86975835,2.60273518 C7.21811404,2.85641175 7.39228927,3.22817356 7.39228927,3.71803177 C7.39228927,3.98545436 7.32236491,4.22100765 7.18251409,4.42469869 C7.04266326,4.62838973 6.8481464,4.77771926 6.59895766,4.87269177 C6.88374479,4.94267152 7.10813843,5.08387852 7.2721453,5.29631703 C7.43615218,5.50875554 7.51815438,5.76867641 7.51815438,6.07608742 C7.51815438,6.6009355 7.34779321,6.99831452 7.00706575,7.26823639 C6.66633829,7.53815826 6.1806818,7.67561641 5.55008172,7.68061496 L3.39130435,7.68061496 Z M4.53553264,5.30381483 L4.53553264,6.777131 L5.51575488,6.777131 C5.78528555,6.777131 5.99569432,6.71402521 6.14698748,6.58781174 C6.29828065,6.46159828 6.37392609,6.28727635 6.37392609,6.06484074 C6.37392609,5.56498542 6.11075622,5.31131265 5.58440857,5.30381483 L4.53553264,5.30381483 Z M4.53553264,4.50904885 L5.38226157,4.50904885 C5.95946407,4.49905174 6.24806098,4.27287061 6.24806098,3.83049865 C6.24806098,3.58307027 6.17495824,3.40499949 6.02875056,3.29628096 C5.88254288,3.18756243 5.65179248,3.13320398 5.33649244,3.13320398 L4.53553264,3.13320398 L4.53553264,4.50904885 Z M11.656098,5.31506151 L9.45917967,5.31506151 L9.45917967,6.777131 L12.0375074,6.777131 L12.0375074,7.68061496 L8.31495138,7.68061496 L8.31495138,2.22222222 L12.0298792,2.22222222 L12.0298792,3.13320398 L9.45917967,3.13320398 L9.45917967,4.43407093 L11.656098,4.43407093 L11.656098,5.31506151 Z M16.903943,3.13320398 L15.202857,3.13320398 L15.202857,7.68061496 L14.0586287,7.68061496 L14.0586287,3.13320398 L12.3804272,3.13320398 L12.3804272,2.22222222 L16.903943,2.22222222 L16.903943,3.13320398 Z M20.6299645,6.55594613 L18.6237508,6.55594613 L18.2423414,7.68061496 L17.0256453,7.68061496 L19.0928844,2.22222222 L20.1532027,2.22222222 L22.2318841,7.68061496 L21.015188,7.68061496 L20.6299645,6.55594613 Z M18.9326925,5.64496437 L20.3210228,5.64496437 L19.6230436,3.60181599 L18.9326925,5.64496437 Z" id="beta" fill="#FFFFFF"></path>
                    </g>
                </g>
            </g>
        </g>
    </g>
</svg>