<svg class="nc-icon glyph" xmlns="http://www.w3.org/2000/svg" xmlns:xlink="http://www.w3.org/1999/xlink" x="0px" y="0px" width="48px" height="48px" viewBox="0 0 48 48"><g>
<path d="M45,5H3C1.895,5,1,5.895,1,7v6c0,0.366,0.2,0.703,0.521,0.878l22,12
	C23.67,25.959,23.835,26,24,26s0.33-0.041,0.479-0.122l22-12C46.8,13.703,47,13.366,47,13V7C47,5.895,46.105,5,45,5z"></path>
<path d="M25.437,27.634C24.994,27.874,24.498,28,24,28s-0.994-0.126-1.433-0.364L1.023,15.885
	C1.011,15.892,1.013,15.891,1,15.898V41c0,1.105,0.895,2,2,2h42c1.105,0,2-0.895,2-2V15.898c-0.013-0.007-0.011-0.006-0.023-0.014
	L25.437,27.634z"></path>
</g></svg>