<svg width="32px" height="32px" viewBox="0 0 32 32" version="1.1" xmlns="http://www.w3.org/2000/svg" xmlns:xlink="http://www.w3.org/1999/xlink">
    <g stroke="none" stroke-width="1" fill="none" fill-rule="evenodd">
        <g transform="translate(-423.000000, -571.000000)">
            <g transform="translate(339.000000, 516.000000)">
                <g transform="translate(84.000000, 55.000000)">
                    <ellipse fill="#FFFFFF" cx="16" cy="16" rx="16" ry="16"></ellipse>
                    <path d="M13.2851,17.9668 C11.3901,17.9458 9.7861,19.1638 9.7861,20.5738 C9.7861,22.0158 11.1541,23.2128 13.0481,23.2128 C15.7111,23.2128 16.6391,22.0878 16.6391,20.6488 C16.6391,20.4748 16.6171,20.3048 16.5781,20.1408 C16.3691,19.3238 15.5411,18.8788 14.5121,18.1638 C14.1391,18.0428 13.7261,17.9708 13.2851,17.9668" fill="#DB5442"></path>
                    <g fill="#DB5442">
                        <path d="M23.9941,11.4825 L21.8181,11.4825 L21.8181,13.6585 L20.7301,13.6585 L20.7301,11.4825 L18.5561,11.4825 L18.5561,10.3945 L20.7301,10.3945 L20.7301,8.2185 L21.8181,8.2185 L21.8181,10.3945 L23.9941,10.3945 L23.9941,11.4825 Z M17.2231,11.7735 C17.2231,12.8165 16.6451,13.6565 15.8301,14.2955 C15.0331,14.9165 14.8831,15.1775 14.8831,15.7055 C14.8831,16.1565 15.8341,16.8305 16.2711,17.1585 C17.7941,18.2985 18.1021,19.0175 18.1021,20.4475 C18.1021,22.2285 16.1821,24.0025 13.0581,24.0025 C10.3181,24.0025 8.0061,22.8865 8.0061,21.1055 C8.0061,19.2945 9.9241,17.4105 12.6641,17.4105 C12.9631,17.4105 13.2361,17.4025 13.5191,17.4025 C13.1441,17.0375 12.8421,16.7225 12.8421,16.1715 C12.8421,15.8455 12.9451,15.5335 13.0921,15.2525 C12.9431,15.2635 12.7911,15.2715 12.6351,15.2715 C10.3841,15.2715 9.0731,13.6915 9.0731,11.7075 C9.0731,9.7655 11.0681,8.0025 13.4611,8.0025 L18.1771,8.0025 L17.1231,9.1075 L15.8851,9.1075 C16.7591,9.6075 17.2231,10.6385 17.2231,11.7735 L17.2231,11.7735 Z M0.0001,32.0005 L32.0001,32.0005 L32.0001,0.0005 L0.0001,0.0005 L0.0001,32.0005 Z"></path>
                    </g>
                    <path d="M12.7509,8.7676 C11.4809,8.7306 10.6269,10.0076 10.8479,11.6776 C11.0669,13.3456 12.2739,14.5116 13.5459,14.5506 C14.8169,14.5876 15.5469,13.5136 15.3279,11.8456 C15.1089,10.1756 14.0219,8.8066 12.7509,8.7676" fill="#DB5442"></path>
                </g>
            </g>
        </g>
    </g>
</svg>