<svg xmlns="http://www.w3.org/2000/svg" viewBox="0 0 511.999 511.999"><path d="M149.6 441.747l73.47-80-15.74-41.083S160 327.33 158.665 331.33c-1.333 4-5.333 57.334-6 66.668-.666 9.332-3.064 43.75-3.064 43.75" fill="#5C546A"/><path d="M509.764 38.45c-2.22-2.297-5.578-3.047-8.547-1.953l-496 184c-3.03 1.125-5.086 3.96-5.21 7.19s1.702 6.22 4.64 7.575l89.227 41.176c6.938 3.207 11.977 9.594 13.477 17.086l28.806 144.043c.664 3.305 3.328 5.844 6.664 6.344 3.28.474 6.617-1.15 8.227-4.12l45.477-84.453c1.234-2.293 3.422-3.805 6-4.14 2.602-.337 5.078.55 6.86 2.448L322.17 473.48c1.53 1.622 3.64 2.517 5.828 2.517.477 0 .96-.043 1.438-.13 2.672-.487 4.914-2.296 5.953-4.804l176-424c1.217-2.937.577-6.32-1.626-8.613z" fill="#e6e6e6"/><path d="M506.198 36.365l-404.97 245.58c3.01 3.225 5.237 7.158 6.123 11.578l28.806 144.043c.664 3.305 3.328 5.844 6.664 6.344 3.28.473 6.617-1.152 8.227-4.12l45.477-84.454c.32-.594.855-.97 1.293-1.452l.07-.35L509.7 38.403c-.99-1.005-2.207-1.666-3.504-2.04z" fill="#7f7f7f"/></svg>
