<svg xmlns="http://www.w3.org/2000/svg" version="1.1" xmlns:xlink="http://www.w3.org/1999/xlink" xmlns:svgjs="http://svgjs.com/svgjs" width="35" height="32" viewBox="0 0 35 32"><path d="M305.28 834C307.75 834 309.75 835.99 309.75 838.45L309.75 859.22C309.75 861.6800000000001 307.75 863.6700000000001 305.28 863.6700000000001L281.46999999999997 863.6700000000001C278.99999999999994 863.6700000000001 276.99999999999994 861.6800000000001 276.99999999999994 859.22L276.99999999999994 838.45C276.99999999999994 835.99 278.99999999999994 834 281.46999999999997 834Z " fill="#ffffff" fill-opacity="1" transform="matrix(1,0,0,1,-276,-833)"></path><path d="M305.28 834C307.75 834 309.75 835.99 309.75 838.45L309.75 859.22C309.75 861.6800000000001 307.75 863.6700000000001 305.28 863.6700000000001L281.46999999999997 863.6700000000001C278.99999999999994 863.6700000000001 276.99999999999994 861.6800000000001 276.99999999999994 859.22L276.99999999999994 838.45C276.99999999999994 835.99 278.99999999999994 834 281.46999999999997 834Z " fill-opacity="0" fill="#ffffff" stroke-dasharray="0" stroke-linejoin="miter" stroke-linecap="square" stroke-opacity="1" stroke-miterlimit="50" stroke-width="2" transform="matrix(1,0,0,1,-276,-833)"></path><path d="M290 843L298.93 848.93L290 854.87Z " fill-opacity="1" transform="matrix(1,0,0,1,-276,-833)"></path><path d="M290 843L298.93 848.93L290 854.87Z " fill-opacity="0" fill="#ffffff" stroke-dasharray="0" stroke-linejoin="miter" stroke-linecap="square" stroke-opacity="1" stroke-miterlimit="50" stroke-width="2" transform="matrix(1,0,0,1,-276,-833)"></path></svg>