<?xml version="1.0" encoding="UTF-8"?>
<svg width="70px" height="14px" viewBox="0 0 70 14" version="1.1" xmlns="http://www.w3.org/2000/svg" xmlns:xlink="http://www.w3.org/1999/xlink">
    <!-- Generator: Sketch 41.2 (35397) - http://www.bohemiancoding.com/sketch -->
    <title>Group 4 Copy 10</title>
    <desc>Created with Sketch.</desc>
    <defs>
        <polygon id="path-1" points="4.83427049 0.292529489 6.28455164 3.41284404 9.37848476 3.41284404 7.10637763 5.80183486 8.02488902 9.45845347 4.83427049 7.60576671 1.64365197 9.45845347 2.56216336 5.80183486 0.29005623 3.41284404 3.38398935 3.41284404"></polygon>
        <mask id="mask-2" maskContentUnits="userSpaceOnUse" maskUnits="objectBoundingBox" x="-1" y="-1" width="11.0884285" height="11.165924">
            <rect x="-0.70994377" y="-0.707470511" width="11.0884285" height="11.165924" fill="white"></rect>
            <use xlink:href="#path-1" fill="black"></use>
        </mask>
    </defs>
    <g id="Symbols" stroke="none" stroke-width="1" fill="none" fill-rule="evenodd">
        <g id="Product-tile" transform="translate(-220.000000, -246.000000)">
            <g id="Group-4-Copy-10" transform="translate(222.000000, 248.000000)">
                <g id="Page-1">
                    <polygon id="Fill-1" fill="#C5C5C5" points="4.83427049 0.292529489 6.28455164 3.41284404 9.37848476 3.41284404 7.10637763 5.80183486 8.02488902 9.45845347 4.83427049 7.60576671 1.64365197 9.45845347 2.56216336 5.80183486 0.29005623 3.41284404 3.38398935 3.41284404"></polygon>
                    <polygon id="Stroke-3" stroke="#C5C5C5" stroke-width="2" stroke-linecap="square" points="4.83427049 0.292529489 6.28455164 3.41284404 9.37848476 3.41284404 7.10637763 5.80183486 8.02488902 9.45845347 4.83427049 7.60576671 1.64365197 9.45845347 2.56216336 5.80183486 0.29005623 3.41284404 3.38398935 3.41284404"></polygon>
                </g>
                <g id="Page-1-Copy-18" transform="translate(13.926606, 0.000000)">
                    <polygon id="Fill-1" fill="#C5C5C5" points="4.83427049 0.292529489 6.28455164 3.41284404 9.37848476 3.41284404 7.10637763 5.80183486 8.02488902 9.45845347 4.83427049 7.60576671 1.64365197 9.45845347 2.56216336 5.80183486 0.29005623 3.41284404 3.38398935 3.41284404"></polygon>
                    <polygon id="Stroke-3" stroke="#C5C5C5" stroke-width="2" stroke-linecap="square" points="4.83427049 0.292529489 6.28455164 3.41284404 9.37848476 3.41284404 7.10637763 5.80183486 8.02488902 9.45845347 4.83427049 7.60576671 1.64365197 9.45845347 2.56216336 5.80183486 0.29005623 3.41284404 3.38398935 3.41284404"></polygon>
                </g>
                <g id="Page-1-Copy-19" transform="translate(27.853211, 0.000000)">
                    <polygon id="Fill-1" fill="#C5C5C5" points="4.83427049 0.292529489 6.28455164 3.41284404 9.37848476 3.41284404 7.10637763 5.80183486 8.02488902 9.45845347 4.83427049 7.60576671 1.64365197 9.45845347 2.56216336 5.80183486 0.29005623 3.41284404 3.38398935 3.41284404"></polygon>
                    <polygon id="Stroke-3" stroke="#C5C5C5" stroke-width="2" stroke-linecap="square" points="4.83427049 0.292529489 6.28455164 3.41284404 9.37848476 3.41284404 7.10637763 5.80183486 8.02488902 9.45845347 4.83427049 7.60576671 1.64365197 9.45845347 2.56216336 5.80183486 0.29005623 3.41284404 3.38398935 3.41284404"></polygon>
                </g>
                <g id="Page-1-Copy-20" transform="translate(41.779817, 0.000000)">
                    <polygon id="Fill-1" fill="#C5C5C5" points="4.83427049 0.292529489 6.28455164 3.41284404 9.37848476 3.41284404 7.10637763 5.80183486 8.02488902 9.45845347 4.83427049 7.60576671 1.64365197 9.45845347 2.56216336 5.80183486 0.29005623 3.41284404 3.38398935 3.41284404"></polygon>
                    <polygon id="Stroke-3" stroke="#C5C5C5" stroke-width="2" stroke-linecap="square" points="4.83427049 0.292529489 6.28455164 3.41284404 9.37848476 3.41284404 7.10637763 5.80183486 8.02488902 9.45845347 4.83427049 7.60576671 1.64365197 9.45845347 2.56216336 5.80183486 0.29005623 3.41284404 3.38398935 3.41284404"></polygon>
                </g>
                <g id="Page-1-Copy-4" transform="translate(55.725954, 0.000000)">
                    <polygon id="Fill-1" fill-opacity="0" fill="#000000" points="4.83427049 0.292529489 6.28455164 3.41284404 9.37848476 3.41284404 7.10637763 5.80183486 8.02488902 9.45845347 4.83427049 7.60576671 1.64365197 9.45845347 2.56216336 5.80183486 0.29005623 3.41284404 3.38398935 3.41284404"></polygon>
                    <use id="Stroke-3" stroke="#C5C5C5" mask="url(#mask-2)" stroke-width="2" stroke-linecap="square" xlink:href="#path-1"></use>
                </g>
            </g>
        </g>
    </g>
</svg>