<svg xmlns="http://www.w3.org/2000/svg" width="91px" height="91px" viewBox="0 0 91 91"><path d="M45.4649807 84.6163751l-9.5047691 5.8154625-6.317677-9.1786272-11.0484003 1.4467514-2.0382011-10.9547239-10.68166282-3.1721161 2.5936983-10.8366493L0 50.4939766l6.7771237-8.8448197L1.9870378 31.5885746l9.78872278-5.3236403-.2839536-11.1391028 11.1077628-.8819551 4.2712767-10.29157116L37.3770162 7.6645333 45.4649807 0l8.0879645 7.6645333L64.059115 3.95230524l4.2712767 10.29157116 11.1077628.8819551-.2839537 11.1391028 9.7887228 5.3236403-4.7900858 10.0605823 6.7771237 8.8448197-8.4679687 7.2424959 2.5936983 10.8366493-10.6816628 3.1721161-2.0382011 10.9547239-11.0484004-1.4467514-6.3176769 9.1786272"/><path fill="#FFF" d="M27.4021212 32.3746066c0-2.3564861.7649672-4.2689042 2.2949246-5.7373115 1.5299574-1.4684074 3.5346991-2.2026001 6.0142852-2.2026001 2.5147576 0 4.5370847.7253999 6.0670421 2.1762216 1.5299574 1.4508217 2.2949246 3.4159961 2.2949246 5.8955822v1.899248c0 2.3740718-.7649672 4.2820935-2.2949246 5.7241223-1.5299574 1.4420288-3.5346991 2.1630324-6.0142852 2.1630324-2.4971719 0-4.5151026-.7253999-6.0538529-2.1762216-1.5387502-1.4508217-2.3081138-3.4072034-2.3081138-5.8692038v-1.8728695zm5.0646612 2.0311402c0 1.055143.3033491 1.9036412.9100563 2.5455198.6067073.6418787 1.402449.9628132 2.3872492.9628132.9848002 0 1.7673528-.3253309 2.3476815-.9760024.5803287-.6506715.8704887-1.5211515.8704887-2.6114659v-1.9520049c0-1.055143-.29016-1.9080375-.8704887-2.5587091-.5803287-.6506715-1.3804668-.9760024-2.4004384-.9760024-.9672144 0-1.7497671.3209345-2.3476815.9628132-.5979144.6418787-.8968671 1.5343405-.8968671 2.6774121v1.9256264zm13.2947357 19.5728054c0-2.3740718.77376-4.2864899 2.3213031-5.7373116 1.5475431-1.4508216 3.5522848-2.1762216 6.0142852-2.1762216 2.4971719 0 4.5151027.7166072 6.0538529 2.1498432 1.5387503 1.433236 2.3081139 3.4072031 2.3081139 5.9219607v1.8992479c0 2.3564861-.7561745 4.2601115-2.2685462 5.7109331-1.5123717 1.4508217-3.5259061 2.1762217-6.0406637 2.1762217-2.5323433 0-4.5634631-.7297964-6.0934205-2.1894109-1.5299574-1.4596145-2.2949247-3.3940144-2.2949247-5.8032576v-1.9520049zm5.0646613 2.0575186c0 .9672145.3165381 1.7937308.949624 2.4795738.6330858.6858429 1.4244312 1.0287593 2.3740599 1.0287593 2.1454575 0 3.2181702-1.1870181 3.2181702-3.56109v-2.0047617c0-1.055143-.2989527-1.9036412-.8968671-2.5455198-.5979144-.6418787-1.3892598-.9628132-2.37406-.9628132-.9848001 0-1.7761455.3209345-2.3740599.9628132-.5979144.6418786-.8968671 1.5167549-.8968671 2.6246551v1.9783833zm-13.5585202 4.4843355l-3.7193606-2.0047617 18.7550736-30.0186693 3.7193606 2.0047618-18.7550736 30.0186692z"/></svg>
