<svg width="126" height="156" viewBox="0 0 126 156" xmlns="http://www.w3.org/2000/svg">
    <path id="a" d="M3.8949845 156c-.00482-.33269-.00724-.66603-.00724-1 0-15.48551 1.1640334-29.2408 10.4065588-40.1576 9.750511-11.5168 26.104542-19.938899 41.719928-21.813757 2.373067-.284922 4.787647 1.649685 7.235773 1.649685 2.489609 0 4.944526-1.929598 7.356372-1.635082 17.348269 2.118435 35.932378 11.712864 45.705678 25.408494 7.32971 10.27134 5.98978 22.92853 5.98978 36.54826 0 .33397-.002.66731-.007 1zM17.459034 69.526537h7.608201c2.864174 0 5.187986-2.322667 5.187986-5.18774V42.364781c0-1.914277-1.039711-3.582082-2.582154-4.480879 1.698886-17.993268 8.643262-30.4618532 35.335812-30.4618532 15.32845 0 24.897262 3.9317072 30.113155 12.3721952 3.034993 4.911675 4.494986 11.255675 5.176993 18.116715-1.51792.905139-2.536913 2.558147-2.536913 4.453399v21.974016c0 2.470211 1.728483 4.532878 4.040879 5.055837-3.353798 2.193301-10.297329 4.433529-24.674436 4.433529-1.164443 0-2.378356-.0148-3.642584-.04524-.739933-1.422602-2.224872-2.396228-3.939825-2.396228h-6.341859c-2.451504 0-4.439598 1.987415-4.439598 4.439025s1.988094 4.439024 4.439598 4.439024h6.341859c1.481557 0 2.790604-.728423 3.596496-1.843252 1.335262.03382 2.642618.05496 3.906.05496 16.205799-.000423 26.507776-2.766147 30.680156-8.253626.17758-.233366.33952-.465887.48709-.69587h2.34368c2.8646 0 5.18799-2.322667 5.18799-5.18774V42.364781c0-2.864651-2.32297-5.187318-5.18799-5.187318h-2.86164c-.80504-8.289561-2.58976-15.346341-6.260675-21.285333C92.829443 5.1983089 80.912718 0 63.008456 0 45.102926 0 33.18747 5.1983089 26.579235 15.892553c-3.67049 5.938992-5.454363 12.994927-6.259832 21.285333h-2.860792c-2.865443 0-5.18841 2.322244-5.18841 5.187317v21.974016c0 2.864651 2.32339 5.187318 5.188833 5.187318zm15.593979-.207155c7.126188 15.724293 22.382759 22.568846 29.955443 22.568846 4.979115 0 13.280316-2.961464 20.408195-9.458082-2.606255.181789-5.391785.273952-8.36843.273952-.698496 0-1.431241-.0063-2.214302-.0186-1.500583 1.155415-3.359295 1.806894-5.288194 1.806894h-6.342282c-4.779544 0-8.667785-3.88774-8.667785-8.666666 0-4.778927 3.888241-8.666667 8.667785-8.666667h6.342282c2.291255 0 4.434101.892878 6.023476 2.433008.528101.0059 1.048591.0085 1.559356.0085 8.187463 0 13.583054-.750829 17.112745-1.65639-.457913-1.113984-.707376-2.332813-.707376-3.605333V42.364781c0-2.285887.848598-4.477074 2.315779-6.169822-.783061-6.094146-2.204155-10.746666-4.325014-14.178666-4.370255-7.072423-12.796188-10.366179-26.516235-10.366179-11.381859 0-19.241637 2.362406-24.027946 7.222081-3.710235 3.767252-5.860268 9.142699-6.865309 17.261041 1.500161 1.699089 2.367786 3.912683 2.367786 6.231545v21.974016c.000422 1.828455-.525141 3.534732-1.429974 4.980585z"></path>
    <path fill="#FFF"
     d="m 84.361226,121.61555 h -0.595 l -0.183,0.822 h -0.862 c -0.807,0 -1.258,0.476 -1.258,1.342 0,0.454 0.186,0.578 0.597,0.61 l 0.124,0.006 c -0.44,-0.035 -0.588,-0.19 -0.588,-0.578 0,-0.793 0.418,-1.23 1.145,-1.23 l 0.924,0.002 c 0.577,0 0.727,0.114 0.727,0.55 0,0.824 -0.37,1.265 -1.057,1.265 h -0.19 l -0.197,0.885 h 0.803 c 1.363,0 2.14,-0.84 2.14,-2.318 0,-0.995 -0.406,-1.358 -1.53,-1.358 z m -1.62,0.84 0.86,0.002 0.184,-0.843 -1.53,-0.002 c -1.343,0 -2.075,0.86 -2.075,2.45 0,0.91 0.386,1.228 1.51,1.228 h 1.274 l 0.197,-0.887 h -0.744 c -0.087,0 -0.238,-0.01 -0.314,-0.014 l -0.01,-0.003 c -0.056,-0.004 -0.088,-0.01 -0.145,-0.022 l -0.074,-0.015 c -0.037,-0.01 -0.06,-0.017 -0.08,-0.024 -0.212,-0.07 -0.31,-0.226 -0.313,-0.547 0.007,-0.853 0.457,-1.322 1.257,-1.322 z m 18.968004,0.103 h 0.8 c 0.568,0 0.723,0.124 0.723,0.58 0,0.742 -0.37,1.21 -0.962,1.21 h -0.963 z m -2.02,2.733 h 2.942 c 1.34,0 2.05,-0.81 2.05,-2.334 0,-0.944 -0.42,-1.344 -1.408,-1.344 h -2.77 l -0.816,3.678 z m -4.829004,-0.464 -0.544,-0.698 c 0.837,-0.182 1.278,-0.66 1.278,-1.395 0,-0.8 -0.46,-1.122 -1.62,-1.122 h -2.406 l -0.822,3.678 h 1.414 l 0.612,-2.733 h 0.897 c 0.4,0 0.612,0.124 0.612,0.357 0,0.332 -0.19,0.498 -0.582,0.498 h -0.987 l 0.676,1.177 c 0.396,0.68 0.43,0.7 1.224,0.7 h 1.412 l 0.44,-0.658 h 1.49 l -0.145,0.66 h 1.414004 l 0.82,-3.68 h -1.703 c -1.200004,0 -1.244004,0.027 -2.020004,1.137 l -1.46,2.078 z m 3.253004,-1.093 h -1.083004 l 0.42,-0.648 c 0.3,-0.473 0.39,-0.53 0.828004,-0.53 h 0.095 l -0.26,1.177 z m -15.246004,1.917 h -1.248 c -1.315,0 -1.804,-0.432 -1.804,-1.594 0,-1.805 0.845,-2.8 2.376,-2.8 h 1.656 l 0.26,-1.153 h -2.313 c -1.333,0 -2.145,0.227 -2.717,0.762 -0.752,0.705 -1.213,2.033 -1.213,3.506 0,1.815 0.652,2.432 2.577,2.432 h 2.17 l 0.256,-1.154 z m 2.942,-0.36 h 1.35 l 0.54,-2.438 1.178,2.438 h 1.404 l 0.822,-3.678 h -1.35 l -0.476,2.12 -0.982,-2.12 h -1.67"></path>
</svg>
