<?xml version="1.0" encoding="UTF-8"?>
<svg width="25px" height="24px" viewBox="0 0 25 24" version="1.1" xmlns="http://www.w3.org/2000/svg" xmlns:xlink="http://www.w3.org/1999/xlink">
    <!-- Generator: Sketch 41 (35326) - http://www.bohemiancoding.com/sketch -->
    <title>Page 1</title>
    <desc>Created with Sketch.</desc>
    <defs></defs>
    <g id="Symbols" stroke="none" stroke-width="1" fill="none" fill-rule="evenodd">
        <g id="Footer" transform="translate(-985.000000, -692.000000)">
            <g id="Page-1" transform="translate(985.000000, 692.000000)">
                <path d="M25,14.7272727 C25,10.8174545 20.8554348,7.63636364 15.7608696,7.63636364 C10.6663043,7.63636364 6.52173913,10.8174545 6.52173913,14.7272727 C6.52173913,18.6370909 10.6663043,21.8181818 15.7608696,21.8181818 C16.3690217,21.8181818 16.9625,21.7701818 17.5380435,21.6834545 L22.0396739,23.9421818 C22.1163043,23.9809091 22.1994565,24 22.2826087,24 C22.3820652,24 22.4809783,23.9727273 22.5684783,23.9187273 C22.7282609,23.8189085 22.826087,23.6438182 22.826087,23.4545455 L22.826087,19.2872727 C24.1804348,18.0529091 25,16.4629091 25,14.7272727 L25,14.7272727 Z" id="Fill-1" fill="#8DDD8D"></path>
                <path d="M11.4130435,0 C5.11956522,0 0,4.15963636 0,9.27272727 C0,11.238 0.750543478,13.1116364 2.17391304,14.7054545 L2.17391304,20.1818182 C2.17391304,20.3710909 2.27173913,20.5461818 2.43152174,20.646 C2.51902174,20.7000005 2.61793478,20.7272727 2.7173913,20.7272727 C2.80054348,20.7272727 2.88369565,20.7081818 2.96032609,20.67 L8.03097826,18.1254545 C9.13695652,18.4041818 10.2733696,18.5454545 11.4130435,18.5454545 C17.7065217,18.5454545 22.826087,14.3858182 22.826087,9.27272727 C22.826087,4.15963636 17.7065217,0 11.4130435,0 L11.4130435,0 Z" id="Fill-3" fill="#FFFFFF"></path>
            </g>
        </g>
    </g>
</svg>