<svg xmlns="http://www.w3.org/2000/svg" xmlns:xlink="http://www.w3.org/1999/xlink" x="0px" y="0px" width="48px" height="48px" viewBox="0 0 48 48"><g  transform="translate(0, 0)">
<polyline fill="none" stroke-width="2" stroke-linecap="square" stroke-miterlimit="10" points="8,24 8,46 20,46 &#10;&#9;20,36 28,36 28,46 40,46 40,24 " stroke-linejoin="miter"/>
<path fill="none" stroke-width="2" stroke-linecap="square" stroke-miterlimit="10" d="M44,18&#10;&#9;c0,3.9-2.2,6-5,6s-5-2.2-5-5c0,2.8-2.2,5-5,5s-5-2.2-5-5c0,2.8-2.2,5-5,5s-5-2.2-5-5c0,2.8-2.2,5-5,5s-5-2.1-5-6l8-16h24L44,18z" stroke-linejoin="miter"/>
</g></svg>
