<svg width="58" height="58" viewBox="0 0 58 58" xmlns="http://www.w3.org/2000/svg"><title>Page 1</title><g fill="none" fill-rule="evenodd"><path d="M28.872 45.39c-.234 0-.468-.064-.674-.195L.58 27.542c-.38-.243-.6-.675-.58-1.13.025-.452.29-.86.694-1.062L28.872 7.565 57.05 25.35c.405.203.67.61.693 1.063.024.454-.198.885-.58 1.13L29.546 45.194c-.205.13-.44.196-.674.196z" fill="#A67C52"/><path d="M47.702 46.652h-37.66V1.262C10.043.564 10.606 0 11.3 0h35.15C47.14 0 47.7.565 47.7 1.26v45.392z" fill="#E6E6E6"/><path d="M56.49 58c-.106 0-.213-.014-.317-.04L27.3 50.394l.317-8.785 30.128-15.132v30.26c0 .392-.18.76-.49 1-.22.17-.49.262-.766.262z" fill="#B28F77"/><path d="M56.49 58H1.254C.56 58 0 57.435 0 56.74V26.477l57.09 29.154c.504.276.76.86.616 1.42-.142.557-.643.948-1.217.948z" fill="#C19F85"/><path d="M38.915 11.348H18.83c-.693 0-1.256-.564-1.256-1.26 0-.698.563-1.262 1.256-1.262h20.085c.693 0 1.255.564 1.255 1.26 0 .698-.562 1.262-1.255 1.262zM38.915 20.174H18.83c-.693 0-1.256-.564-1.256-1.26 0-.698.563-1.262 1.256-1.262h20.085c.693 0 1.255.564 1.255 1.26 0 .698-.562 1.262-1.255 1.262zM30.128 29H18.83c-.693 0-1.256-.564-1.256-1.26 0-.698.563-1.262 1.256-1.262h11.298c.693 0 1.255.564 1.255 1.26 0 .698-.562 1.262-1.255 1.262z" fill="#B3B3B3"/></g></svg>
