<?xml version="1.0" encoding="UTF-8"?>
<svg width="25px" height="23px" viewBox="0 0 25 23" version="1.1" xmlns="http://www.w3.org/2000/svg" xmlns:xlink="http://www.w3.org/1999/xlink">
    <!-- Generator: Sketch 41 (35326) - http://www.bohemiancoding.com/sketch -->
    <title>Page 1 Copy 2</title>
    <desc>Created with Sketch.</desc>
    <defs></defs>
    <g id="Symbols" stroke="none" stroke-width="1" fill="none" fill-rule="evenodd">
        <g id="Footer" transform="translate(-516.000000, -46.000000)">
            <g id="Page-1-Copy-2" transform="translate(516.000000, 46.000000)">
                <path d="M11.4545455,23 C5.13867273,23 0,17.841204 0,11.5 C0,5.15879595 5.13867273,0 11.4545455,0 C13.5884236,0 15.6701018,0.593076905 17.4753218,1.71505524 C17.7315382,1.874155 17.8103727,2.21160333 17.6521691,2.46883095 C17.4934309,2.7263269 17.1573164,2.80521143 16.9011055,2.64611167 C15.2684673,1.63162548 13.3854764,1.0952381 11.4545455,1.0952381 C5.74005818,1.0952381 1.09090909,5.76283619 1.09090909,11.5 C1.09090909,17.2371638 5.74005818,21.9047619 11.4545455,21.9047619 C17.1690327,21.9047619 21.8181818,17.2371638 21.8181818,11.5 C21.8181818,10.5732205 21.6967309,9.65339024 21.4570309,8.76591333 C21.3781964,8.47392286 21.5497145,8.17310476 21.8405509,8.09395738 C22.1319218,8.01614619 22.4312836,8.18754548 22.5095836,8.47926762 C22.77486,9.46006429 22.9090909,10.4764233 22.9090909,11.5 C22.9090909,17.841204 17.7704182,23 11.4545455,23 L11.4545455,23 Z" id="Fill-1" fill="#B3B3B3"></path>
                <path d="M11.4545455,14.2380952 C11.3149855,14.2380952 11.1754255,14.1846148 11.0688927,14.0776593 L6.70525636,9.6967069 C6.49219091,9.48279595 6.49219091,9.13625167 6.70525636,8.92234071 C6.91832182,8.70842976 7.26349636,8.70842976 7.47656182,8.92234071 L11.4545455,12.91611 L23.0688927,1.25567405 C23.2819582,1.0417631 23.6271327,1.0417631 23.8401982,1.25567405 C24.0532636,1.469585 24.0532636,1.81612929 23.8401982,2.03004024 L11.8401982,14.0776593 C11.7336655,14.1846148 11.5941055,14.2380952 11.4545455,14.2380952 L11.4545455,14.2380952 Z" id="Fill-3" stroke="#0098DD" fill="#0098DD"></path>
            </g>
        </g>
    </g>
</svg>